<svg xmlns="http://www.w3.org/2000/svg" xmlns:xlink="http://www.w3.org/1999/xlink" width="200" zoomAndPan="magnify" viewBox="0 0 150 149.999998" height="200" preserveAspectRatio="xMidYMid meet" version="1.0"><defs><g/><clipPath id="1900c02320"><path d="M 37.582031 46.671875 L 112.425781 46.671875 L 112.425781 84.171875 L 37.582031 84.171875 Z M 37.582031 46.671875 " clip-rule="nonzero"/></clipPath></defs><g clip-path="url(#1900c02320)"><path fill="#ffffff" d="M 73.199219 55.109375 C 67.917969 56.621094 41.664062 64.117188 42.074219 64.195312 C 42.472656 64.289062 67.808594 58.101562 73.359375 56.730469 C 75.105469 56.308594 74.738281 54.667969 73.199219 55.109375 Z M 73.820312 60.953125 C 68.535156 62.085938 42.28125 67.738281 42.679688 67.863281 C 43.089844 67.972656 68.425781 63.566406 73.976562 62.589844 C 75.722656 62.289062 75.359375 60.621094 73.820312 60.953125 Z M 45.914062 76.902344 C 45.34375 76.902344 44.882812 77.988281 44.882812 79.328125 C 44.882812 80.664062 45.34375 81.753906 45.914062 81.753906 C 46.484375 81.753906 46.960938 80.664062 46.960938 79.328125 C 46.960938 77.988281 46.484375 76.902344 45.914062 76.902344 Z M 64.523438 74.871094 L 64.523438 78.429688 L 58.605469 78.667969 L 58.71875 75.34375 Z M 68.078125 81.769531 C 67.109375 81.769531 66.332031 80.144531 66.332031 78.164062 C 66.332031 76.179688 67.109375 74.554688 68.078125 74.554688 C 69.042969 74.554688 69.820312 76.179688 69.820312 78.164062 C 69.820312 80.144531 69.042969 81.769531 68.078125 81.769531 Z M 85.699219 81.785156 C 84.6875 81.785156 83.859375 79.800781 83.859375 77.34375 C 83.859375 74.902344 84.6875 72.902344 85.699219 72.902344 C 86.699219 72.902344 87.542969 74.902344 87.542969 77.34375 C 87.542969 79.800781 86.699219 81.785156 85.699219 81.785156 Z M 43.203125 77.15625 C 42.757812 77.15625 42.394531 78.148438 42.394531 79.390625 C 42.394531 80.617188 42.757812 81.609375 43.203125 81.609375 C 43.660156 81.609375 44.027344 80.617188 44.027344 79.390625 C 44.027344 78.148438 43.660156 77.15625 43.203125 77.15625 Z M 109.464844 73.878906 C 109.464844 73.878906 106.65625 74.476562 106.023438 74.980469 C 105.386719 75.484375 105.863281 76.148438 105.863281 76.148438 L 109.464844 76.304688 Z M 92.746094 72.777344 C 92.746094 72.777344 97.296875 73.484375 97.804688 74.304688 C 98.3125 75.140625 97.503906 75.769531 97.503906 75.769531 L 93.539062 75.59375 Z M 108.878906 66.242188 C 108.878906 66.242188 107.703125 70.871094 107.417969 71.234375 C 107.132812 71.597656 106.800781 71.832031 106.371094 71.894531 C 105.929688 71.972656 105.722656 71.957031 105.722656 71.957031 L 97.648438 71.5 C 97.648438 71.5 96.648438 71.34375 96.1875 70.652344 C 96.109375 70.523438 95.996094 70.242188 95.855469 69.878906 C 96.410156 69.910156 97.25 69.957031 98.519531 70.054688 C 102.199219 70.273438 105.054688 70.335938 104.914062 70.195312 C 104.769531 70.085938 96.996094 69.328125 95.632812 69.203125 C 95.519531 68.871094 95.410156 68.496094 95.300781 68.132812 C 96.820312 68.242188 104.117188 68.683594 104.167969 68.558594 C 104.230469 68.429688 96.519531 67.488281 95.0625 67.3125 C 94.980469 67 94.886719 66.699219 94.808594 66.417969 C 97.042969 66.605469 106.371094 67.40625 106.453125 67.234375 C 106.53125 67.046875 96.679688 65.894531 94.601562 65.660156 C 94.472656 65.171875 94.394531 64.855469 94.394531 64.855469 Z M 109.308594 63.816406 C 109.308594 63.816406 94.285156 62.480469 94.046875 62.464844 C 93.808594 62.433594 91.125 52.703125 91.125 52.703125 L 105.277344 55.171875 C 106.007812 56.605469 109.308594 62.527344 109.308594 63.816406 Z M 106.101562 54.511719 C 106.101562 54.511719 109.75 61.628906 109.941406 62.335938 C 110.132812 63.046875 110.117188 64.699219 110.117188 64.699219 C 110.117188 64.699219 110.304688 64.984375 110.480469 64.714844 C 110.65625 64.464844 110.574219 63.25 110.574219 63.25 C 110.574219 63.25 111.003906 63.359375 111.257812 62.902344 C 111.496094 62.449219 111.589844 59.785156 111.035156 59.363281 C 110.496094 58.953125 109.417969 59.328125 109.417969 59.328125 C 109.417969 59.328125 106.640625 54.605469 106.402344 54.402344 C 106.164062 54.214844 106.101562 54.511719 106.101562 54.511719 Z M 89.367188 62.289062 C 89.382812 62.605469 89.367188 63.109375 89.191406 63.296875 C 89.082031 63.425781 88.84375 63.503906 88.574219 63.519531 C 88.574219 63.800781 88.636719 64.179688 88.824219 64.273438 C 89.269531 64.496094 90.316406 64.382812 90.316406 64.382812 C 90.507812 64.367188 90.667969 64.511719 90.683594 64.683594 C 90.699219 64.871094 90.570312 65.03125 90.382812 65.046875 C 90.382812 65.046875 89.144531 65.171875 88.542969 64.871094 C 88.035156 64.636719 87.921875 63.929688 87.890625 63.503906 C 87.714844 63.472656 87.542969 63.425781 87.429688 63.359375 C 87.035156 63.140625 87.113281 62.226562 87.113281 62.226562 C 87.113281 62.226562 87.160156 58.304688 87.242188 58.195312 C 87.320312 58.070312 88.621094 57.882812 89.015625 58.179688 C 89.429688 58.480469 89.367188 58.480469 89.367188 58.480469 C 89.367188 58.480469 89.320312 57.914062 88.824219 57.550781 C 88.320312 57.203125 86.8125 57.1875 86.445312 57.613281 C 86.082031 58.039062 86.175781 62.242188 86.175781 62.242188 C 86.175781 62.242188 85.335938 62.542969 84.449219 62.085938 C 83.558594 61.613281 82.164062 55.992188 82.324219 55.347656 C 82.496094 54.683594 82.75 54.605469 82.75 54.605469 L 88.875 52.765625 L 91.808594 61.898438 C 91.808594 61.898438 91.761719 66.667969 91.316406 66.257812 C 90.855469 65.863281 91.03125 62.320312 91.03125 62.320312 Z M 50.832031 82.128906 L 49.101562 82.082031 C 49.132812 82.066406 49.152344 82.050781 49.167969 82.035156 C 49.339844 81.816406 49.40625 81.453125 49.4375 81.234375 L 50.246094 81.1875 C 50.46875 81.769531 50.675781 82.019531 50.832031 82.128906 Z M 67.519531 82.507812 C 62.792969 82.398438 58.445312 82.304688 54.941406 82.226562 C 55.050781 82.210938 55.371094 82.113281 55.828125 81.609375 C 56.226562 81.1875 56.304688 80.523438 56.304688 80.164062 C 60.527344 80.144531 64.886719 80.113281 65.140625 80.019531 C 65.363281 79.957031 65.554688 79.800781 65.710938 79.65625 C 65.730469 79.722656 65.746094 79.785156 65.761719 79.847656 C 66.234375 81.832031 67.234375 82.492188 67.234375 82.492188 Z M 76.613281 82.710938 L 72.042969 82.601562 C 72.25 82.460938 72.535156 82.226562 72.851562 81.832031 C 73.3125 81.25 73.519531 80.492188 73.613281 80.035156 L 75.136719 80.035156 C 75.246094 80.445312 75.4375 80.980469 75.738281 81.515625 C 76.152344 82.289062 76.453125 82.585938 76.613281 82.710938 Z M 84.164062 82.871094 L 81.941406 82.824219 C 82.148438 82.679688 82.433594 82.414062 82.765625 81.941406 C 82.894531 81.753906 83.003906 81.5625 83.101562 81.359375 C 83.179688 81.515625 83.257812 81.660156 83.335938 81.800781 C 83.6875 82.382812 83.972656 82.695312 84.164062 82.871094 Z M 100.121094 83.214844 L 90.367188 83.011719 C 90.570312 82.855469 90.839844 82.601562 91.140625 82.226562 C 91.683594 81.53125 91.96875 80.601562 92.109375 80.050781 C 92.378906 80.050781 94.742188 80.066406 97.632812 80.082031 C 97.726562 80.476562 97.882812 80.933594 98.136719 81.390625 C 98.613281 82.289062 99.359375 82.871094 100.121094 83.214844 Z M 111.625 83.453125 L 104.484375 83.3125 C 104.847656 83.183594 105.199219 83.027344 105.515625 82.808594 C 106.355469 82.226562 106.769531 80.871094 106.941406 80.097656 C 108.195312 80.082031 109.039062 80.066406 109.101562 80.050781 C 109.402344 79.941406 110.6875 78.667969 110.863281 78.019531 C 110.972656 77.644531 110.65625 77.089844 110.402344 76.730469 L 110.464844 76.730469 L 110.464844 67.34375 C 110.464844 67.34375 110.480469 66.511719 110.148438 66.621094 C 109.863281 66.699219 109.71875 71.328125 109.6875 72.683594 L 92.523438 72.003906 C 92.175781 70.886719 91.824219 69.863281 91.570312 69.359375 C 90.855469 68.003906 88.699219 68.210938 88.699219 68.210938 L 81.894531 68.808594 C 81.894531 68.808594 82.070312 74.683594 81.894531 74.746094 C 81.71875 74.824219 70.882812 74.730469 71.027344 74.523438 C 71.171875 74.335938 80.878906 73.691406 80.878906 73.691406 L 80.878906 53.851562 L 90.351562 50.636719 L 98.394531 51.914062 L 98.40625 50.683594 C 91.9375 48.9375 85.367188 47.519531 78.625 46.671875 C 78.625 46.671875 41.550781 60.402344 41.425781 60.699219 C 41.3125 60.984375 72.28125 51.347656 77.230469 49.804688 L 77.230469 72.003906 L 68.964844 72.808594 L 68.980469 72.808594 C 64.570312 73.296875 41.28125 75.816406 41.265625 75.707031 C 41.265625 75.609375 41.328125 68.871094 41.125 68.808594 C 40.902344 68.730469 40.28125 79.089844 40.347656 79.421875 C 40.410156 79.738281 41.503906 79.722656 41.632812 79.722656 C 41.648438 79.957031 41.679688 80.242188 41.742188 80.601562 C 41.835938 81.28125 42.027344 81.703125 42.15625 81.957031 C 38.601562 81.957031 37.664062 82.160156 37.585938 82.320312 C 37.222656 83.265625 52.957031 83.390625 55.050781 83.453125 C 64.585938 83.71875 88.90625 84.128906 101.914062 84.175781 C 101.960938 84.175781 112.242188 84.050781 112.414062 83.703125 C 112.527344 83.5 111.625 83.453125 111.625 83.453125 Z M 68.234375 81.027344 C 68.855469 80.679688 69.3125 79.53125 69.3125 78.179688 C 69.3125 77.25 69.09375 76.429688 68.757812 75.878906 C 68.664062 75.707031 68.21875 75.21875 68.042969 75.515625 C 67.964844 75.660156 68.601562 76.683594 68.550781 78.035156 C 68.535156 78.445312 68.472656 79.042969 68.296875 79.578125 C 68.09375 80.179688 67.757812 80.382812 67.824219 80.761719 C 67.855469 81.027344 68.0625 81.011719 68.234375 81.027344 Z M 85.78125 74.367188 C 85.667969 74.367188 85.574219 74.414062 85.464844 74.492188 C 85.667969 75.042969 86.210938 76.839844 85.90625 78.460938 C 85.542969 80.398438 85.144531 79.042969 85.050781 78.761719 C 84.957031 78.492188 84.875 78.539062 84.78125 78.648438 C 84.957031 79.722656 85.335938 80.476562 85.78125 80.476562 C 86.398438 80.476562 86.890625 79.105469 86.890625 77.421875 C 86.890625 75.738281 86.398438 74.367188 85.78125 74.367188 Z M 73.675781 67.535156 C 68.394531 68.242188 42.140625 71.738281 42.535156 71.894531 C 42.949219 72.035156 68.28125 69.707031 73.835938 69.1875 C 75.578125 69.027344 75.214844 67.328125 73.675781 67.535156 " fill-opacity="1" fill-rule="evenodd"/></g><g fill="#ffffff" fill-opacity="1"><g transform="translate(25.963018, 95.271764)"><g><path d="M 4.859375 -7.625 C 5.535156 -7.625 6.082031 -7.535156 6.5 -7.359375 C 6.925781 -7.179688 7.257812 -6.914062 7.5 -6.5625 C 7.65625 -6.3125 7.773438 -6.03125 7.859375 -5.71875 C 7.953125 -5.414062 8 -5.066406 8 -4.671875 C 8 -4.316406 7.96875 -3.96875 7.90625 -3.625 C 7.84375 -3.28125 7.753906 -2.945312 7.640625 -2.625 C 7.523438 -2.3125 7.382812 -2.015625 7.21875 -1.734375 C 7.0625 -1.453125 6.882812 -1.207031 6.6875 -1 C 6.3125 -0.59375 5.878906 -0.304688 5.390625 -0.140625 C 4.910156 0.015625 4.316406 0.09375 3.609375 0.09375 C 2.929688 0.09375 2.378906 0.0234375 1.953125 -0.109375 C 1.535156 -0.253906 1.207031 -0.484375 0.96875 -0.796875 C 0.789062 -1.023438 0.648438 -1.304688 0.546875 -1.640625 C 0.453125 -1.984375 0.40625 -2.410156 0.40625 -2.921875 C 0.40625 -3.796875 0.5625 -4.578125 0.875 -5.265625 C 1.1875 -5.953125 1.628906 -6.5 2.203125 -6.90625 C 2.554688 -7.144531 2.941406 -7.320312 3.359375 -7.4375 C 3.785156 -7.5625 4.285156 -7.625 4.859375 -7.625 Z M 3.515625 -0.734375 C 3.703125 -0.734375 3.875 -0.8125 4.03125 -0.96875 C 4.195312 -1.132812 4.347656 -1.351562 4.484375 -1.625 C 4.617188 -1.894531 4.742188 -2.203125 4.859375 -2.546875 C 4.972656 -2.898438 5.066406 -3.257812 5.140625 -3.625 C 5.222656 -4 5.285156 -4.367188 5.328125 -4.734375 C 5.367188 -5.097656 5.390625 -5.429688 5.390625 -5.734375 C 5.390625 -6.140625 5.347656 -6.414062 5.265625 -6.5625 C 5.191406 -6.71875 5.070312 -6.796875 4.90625 -6.796875 C 4.726562 -6.796875 4.554688 -6.71875 4.390625 -6.5625 C 4.222656 -6.40625 4.066406 -6.195312 3.921875 -5.9375 C 3.773438 -5.675781 3.644531 -5.375 3.53125 -5.03125 C 3.414062 -4.6875 3.316406 -4.332031 3.234375 -3.96875 C 3.160156 -3.601562 3.097656 -3.242188 3.046875 -2.890625 C 3.003906 -2.535156 2.984375 -2.207031 2.984375 -1.90625 C 2.984375 -1.457031 3.03125 -1.148438 3.125 -0.984375 C 3.226562 -0.816406 3.359375 -0.734375 3.515625 -0.734375 Z M 3.515625 -0.734375 "/></g></g></g><g fill="#ffffff" fill-opacity="1"><g transform="translate(34.402338, 95.271764)"><g><path d="M 2.296875 0 L -0.125 0 L 1.5625 -7.9375 L 3.984375 -7.9375 Z M 2.296875 0 "/></g></g></g><g fill="#ffffff" fill-opacity="1"><g transform="translate(38.214821, 95.271764)"><g><path d="M 0.84375 -4.640625 C 1.25 -4.835938 1.660156 -4.976562 2.078125 -5.0625 C 2.503906 -5.15625 2.976562 -5.203125 3.5 -5.203125 C 4 -5.203125 4.414062 -5.160156 4.75 -5.078125 C 5.082031 -5.003906 5.34375 -4.894531 5.53125 -4.75 C 5.726562 -4.601562 5.867188 -4.425781 5.953125 -4.21875 C 6.035156 -4.007812 6.078125 -3.773438 6.078125 -3.515625 C 6.078125 -3.367188 6.066406 -3.207031 6.046875 -3.03125 C 6.023438 -2.863281 6.003906 -2.71875 5.984375 -2.59375 L 5.421875 0 L 3.515625 0 L 3.3125 -0.75 L 3.234375 -0.75 C 2.984375 -0.476562 2.691406 -0.269531 2.359375 -0.125 C 2.023438 0.0195312 1.691406 0.09375 1.359375 0.09375 C 1.171875 0.09375 0.984375 0.0625 0.796875 0 C 0.617188 -0.0507812 0.457031 -0.128906 0.3125 -0.234375 C 0.175781 -0.347656 0.0664062 -0.492188 -0.015625 -0.671875 C -0.109375 -0.847656 -0.15625 -1.066406 -0.15625 -1.328125 C -0.15625 -1.734375 -0.046875 -2.054688 0.171875 -2.296875 C 0.398438 -2.535156 0.695312 -2.71875 1.0625 -2.84375 C 1.4375 -2.96875 1.851562 -3.046875 2.3125 -3.078125 C 2.769531 -3.109375 3.234375 -3.125 3.703125 -3.125 C 3.710938 -3.195312 3.726562 -3.304688 3.75 -3.453125 C 3.78125 -3.597656 3.796875 -3.726562 3.796875 -3.84375 C 3.796875 -3.976562 3.753906 -4.109375 3.671875 -4.234375 C 3.597656 -4.359375 3.445312 -4.421875 3.21875 -4.421875 C 2.9375 -4.421875 2.726562 -4.335938 2.59375 -4.171875 C 2.46875 -4.015625 2.382812 -3.820312 2.34375 -3.59375 L 0.625 -3.59375 Z M 3.5625 -2.5625 L 3.359375 -2.5625 C 3.128906 -2.5625 2.929688 -2.53125 2.765625 -2.46875 C 2.609375 -2.414062 2.476562 -2.34375 2.375 -2.25 C 2.28125 -2.15625 2.207031 -2.046875 2.15625 -1.921875 C 2.113281 -1.804688 2.09375 -1.691406 2.09375 -1.578125 C 2.09375 -1.378906 2.140625 -1.234375 2.234375 -1.140625 C 2.335938 -1.046875 2.457031 -1 2.59375 -1 C 2.75 -1 2.90625 -1.054688 3.0625 -1.171875 C 3.226562 -1.296875 3.332031 -1.457031 3.375 -1.65625 Z M 3.5625 -2.5625 "/></g></g></g><g fill="#ffffff" fill-opacity="1"><g transform="translate(45.084323, 95.271764)"><g><path d="M 2.921875 -2.921875 L 5.671875 -5.078125 L 7.234375 -5.078125 L 4.875 -3.15625 L 6.640625 0 L 4 0 L 2.78125 -2.375 L 2.296875 0 L -0.125 0 L 1.5625 -7.9375 L 3.984375 -7.9375 Z M 2.921875 -2.921875 "/></g></g></g><g fill="#ffffff" fill-opacity="1"><g transform="translate(52.508571, 95.271764)"><g><path d="M 4.40625 -5.078125 L 6.8125 -5.078125 L 5.734375 0 L 3.8125 0 L 3.609375 -0.75 L 3.53125 -0.75 C 3.320312 -0.507812 3.039062 -0.304688 2.6875 -0.140625 C 2.34375 0.015625 1.992188 0.09375 1.640625 0.09375 C 1.171875 0.09375 0.800781 -0.0234375 0.53125 -0.265625 C 0.257812 -0.503906 0.125 -0.816406 0.125 -1.203125 C 0.125 -1.398438 0.15625 -1.644531 0.21875 -1.9375 C 0.289062 -2.238281 0.351562 -2.519531 0.40625 -2.78125 L 0.90625 -5.078125 L 3.3125 -5.078125 L 2.71875 -2.3125 C 2.695312 -2.25 2.675781 -2.171875 2.65625 -2.078125 C 2.644531 -1.992188 2.628906 -1.910156 2.609375 -1.828125 C 2.597656 -1.753906 2.585938 -1.675781 2.578125 -1.59375 C 2.566406 -1.519531 2.5625 -1.460938 2.5625 -1.421875 C 2.5625 -1.296875 2.585938 -1.191406 2.640625 -1.109375 C 2.691406 -1.035156 2.785156 -1 2.921875 -1 C 3.054688 -1 3.1875 -1.046875 3.3125 -1.140625 C 3.445312 -1.234375 3.546875 -1.320312 3.609375 -1.40625 Z M 4.40625 -5.078125 "/></g></g></g><g fill="#ffffff" fill-opacity="1"><g transform="translate(59.767577, 95.271764)"><g><path d="M 3.171875 -4.328125 C 3.328125 -4.484375 3.507812 -4.628906 3.71875 -4.765625 C 3.90625 -4.867188 4.117188 -4.96875 4.359375 -5.0625 C 4.597656 -5.15625 4.867188 -5.203125 5.171875 -5.203125 C 5.578125 -5.203125 5.914062 -5.097656 6.1875 -4.890625 C 6.457031 -4.679688 6.59375 -4.398438 6.59375 -4.046875 C 6.59375 -3.941406 6.578125 -3.816406 6.546875 -3.671875 C 6.523438 -3.523438 6.5 -3.375 6.46875 -3.21875 C 6.4375 -3.0625 6.398438 -2.898438 6.359375 -2.734375 C 6.328125 -2.578125 6.300781 -2.429688 6.28125 -2.296875 L 5.78125 0 L 3.390625 0 L 4.046875 -3.078125 C 4.054688 -3.179688 4.070312 -3.285156 4.09375 -3.390625 C 4.125 -3.503906 4.140625 -3.601562 4.140625 -3.6875 C 4.140625 -3.800781 4.109375 -3.894531 4.046875 -3.96875 C 3.984375 -4.050781 3.894531 -4.09375 3.78125 -4.09375 C 3.632812 -4.09375 3.492188 -4.039062 3.359375 -3.9375 C 3.234375 -3.832031 3.140625 -3.742188 3.078125 -3.671875 L 2.296875 0 L -0.125 0 L 0.953125 -5.078125 L 2.875 -5.078125 L 3.09375 -4.328125 Z M 3.171875 -4.328125 "/></g></g></g><g fill="#ffffff" fill-opacity="1"><g transform="translate(67.038383, 95.271764)"><g><path d="M 2.296875 0 L -0.125 0 L 1.5625 -7.9375 L 3.984375 -7.9375 Z M 2.296875 0 "/></g></g></g><g fill="#ffffff" fill-opacity="1"><g transform="translate(70.850868, 95.271764)"><g><path d="M 2.578125 -2.375 C 2.546875 -2.195312 2.523438 -2.03125 2.515625 -1.875 C 2.503906 -1.71875 2.5 -1.578125 2.5 -1.453125 C 2.5 -1.378906 2.5 -1.300781 2.5 -1.21875 C 2.507812 -1.132812 2.523438 -1.050781 2.546875 -0.96875 C 2.578125 -0.894531 2.617188 -0.832031 2.671875 -0.78125 C 2.722656 -0.726562 2.796875 -0.703125 2.890625 -0.703125 C 2.960938 -0.703125 3.039062 -0.722656 3.125 -0.765625 C 3.21875 -0.816406 3.3125 -0.882812 3.40625 -0.96875 C 3.5 -1.0625 3.585938 -1.171875 3.671875 -1.296875 C 3.753906 -1.421875 3.816406 -1.5625 3.859375 -1.71875 L 5.796875 -1.71875 L 5.5 -0.453125 C 5.332031 -0.359375 5.144531 -0.273438 4.9375 -0.203125 C 4.738281 -0.128906 4.523438 -0.0703125 4.296875 -0.03125 C 4.066406 0.0078125 3.832031 0.0390625 3.59375 0.0625 C 3.363281 0.0820312 3.140625 0.09375 2.921875 0.09375 C 2.535156 0.09375 2.171875 0.0546875 1.828125 -0.015625 C 1.492188 -0.0859375 1.195312 -0.207031 0.9375 -0.375 C 0.6875 -0.550781 0.488281 -0.78125 0.34375 -1.0625 C 0.195312 -1.351562 0.125 -1.710938 0.125 -2.140625 C 0.125 -2.523438 0.1875 -2.898438 0.3125 -3.265625 C 0.4375 -3.640625 0.640625 -3.96875 0.921875 -4.25 C 1.210938 -4.539062 1.597656 -4.769531 2.078125 -4.9375 C 2.566406 -5.113281 3.171875 -5.203125 3.890625 -5.203125 C 4.679688 -5.203125 5.273438 -5.082031 5.671875 -4.84375 C 6.066406 -4.601562 6.265625 -4.222656 6.265625 -3.703125 C 6.265625 -3.484375 6.234375 -3.25 6.171875 -3 C 6.109375 -2.757812 6.015625 -2.550781 5.890625 -2.375 Z M 4.140625 -3.78125 C 4.140625 -4.019531 4.097656 -4.179688 4.015625 -4.265625 C 3.941406 -4.359375 3.851562 -4.40625 3.75 -4.40625 C 3.625 -4.40625 3.503906 -4.363281 3.390625 -4.28125 C 3.285156 -4.195312 3.191406 -4.085938 3.109375 -3.953125 C 3.023438 -3.816406 2.945312 -3.660156 2.875 -3.484375 C 2.800781 -3.304688 2.738281 -3.117188 2.6875 -2.921875 L 4.046875 -2.921875 C 4.054688 -3.015625 4.070312 -3.113281 4.09375 -3.21875 C 4.101562 -3.300781 4.113281 -3.394531 4.125 -3.5 C 4.132812 -3.601562 4.140625 -3.695312 4.140625 -3.78125 Z M 4.140625 -3.78125 "/></g></g></g><g fill="#ffffff" fill-opacity="1"><g transform="translate(77.661351, 95.271764)"><g><path d="M 1.90625 -4.640625 L 1 -4.640625 L 1.515625 -7.9375 L 3.3125 -7.9375 Z M 1.90625 -4.640625 "/></g></g></g><g fill="#ffffff" fill-opacity="1"><g transform="translate(80.54139, 95.271764)"><g><path d="M 3.625 -3.59375 C 3.632812 -3.632812 3.640625 -3.671875 3.640625 -3.703125 C 3.648438 -3.742188 3.65625 -3.789062 3.65625 -3.84375 C 3.65625 -3.976562 3.628906 -4.109375 3.578125 -4.234375 C 3.535156 -4.359375 3.4375 -4.421875 3.28125 -4.421875 C 3.144531 -4.421875 3.007812 -4.363281 2.875 -4.25 C 2.75 -4.132812 2.6875 -3.984375 2.6875 -3.796875 C 2.6875 -3.671875 2.71875 -3.566406 2.78125 -3.484375 C 2.84375 -3.410156 2.929688 -3.347656 3.046875 -3.296875 C 3.160156 -3.253906 3.285156 -3.21875 3.421875 -3.1875 C 3.554688 -3.15625 3.691406 -3.125 3.828125 -3.09375 C 4.015625 -3.050781 4.191406 -2.992188 4.359375 -2.921875 C 4.535156 -2.859375 4.6875 -2.769531 4.8125 -2.65625 C 4.945312 -2.550781 5.050781 -2.414062 5.125 -2.25 C 5.207031 -2.09375 5.25 -1.894531 5.25 -1.65625 C 5.25 -1.320312 5.171875 -1.039062 5.015625 -0.8125 C 4.867188 -0.59375 4.660156 -0.414062 4.390625 -0.28125 C 4.117188 -0.144531 3.796875 -0.0507812 3.421875 0 C 3.054688 0.0625 2.664062 0.09375 2.25 0.09375 C 1.613281 0.09375 1.085938 0.046875 0.671875 -0.046875 C 0.253906 -0.140625 -0.0351562 -0.226562 -0.203125 -0.3125 L 0.046875 -1.5 L 1.640625 -1.5 C 1.628906 -1.457031 1.625 -1.414062 1.625 -1.375 C 1.625 -1.34375 1.625 -1.3125 1.625 -1.28125 C 1.625 -1.09375 1.664062 -0.945312 1.75 -0.84375 C 1.832031 -0.738281 1.976562 -0.6875 2.1875 -0.6875 C 2.414062 -0.6875 2.578125 -0.75 2.671875 -0.875 C 2.773438 -1.007812 2.828125 -1.128906 2.828125 -1.234375 C 2.828125 -1.347656 2.785156 -1.445312 2.703125 -1.53125 C 2.617188 -1.613281 2.515625 -1.679688 2.390625 -1.734375 C 2.265625 -1.796875 2.125 -1.847656 1.96875 -1.890625 C 1.8125 -1.929688 1.664062 -1.972656 1.53125 -2.015625 C 1.425781 -2.046875 1.304688 -2.085938 1.171875 -2.140625 C 1.046875 -2.191406 0.921875 -2.269531 0.796875 -2.375 C 0.679688 -2.476562 0.582031 -2.609375 0.5 -2.765625 C 0.425781 -2.929688 0.390625 -3.132812 0.390625 -3.375 C 0.390625 -3.71875 0.472656 -4.003906 0.640625 -4.234375 C 0.804688 -4.472656 1.023438 -4.660156 1.296875 -4.796875 C 1.578125 -4.941406 1.882812 -5.046875 2.21875 -5.109375 C 2.5625 -5.171875 2.910156 -5.203125 3.265625 -5.203125 C 3.691406 -5.203125 4.097656 -5.160156 4.484375 -5.078125 C 4.867188 -5.003906 5.1875 -4.90625 5.4375 -4.78125 L 5.15625 -3.59375 Z M 3.625 -3.59375 "/></g></g></g><g fill="#ffffff" fill-opacity="1"><g transform="translate(86.643686, 95.271764)"><g/></g></g><g fill="#ffffff" fill-opacity="1"><g transform="translate(89.252252, 95.271764)"><g><path d="M 6.65625 -0.640625 C 6.457031 -0.546875 6.253906 -0.453125 6.046875 -0.359375 C 5.835938 -0.265625 5.613281 -0.1875 5.375 -0.125 C 5.144531 -0.0625 4.890625 -0.0078125 4.609375 0.03125 C 4.328125 0.0703125 4.023438 0.09375 3.703125 0.09375 C 2.640625 0.09375 1.820312 -0.140625 1.25 -0.609375 C 0.6875 -1.085938 0.40625 -1.878906 0.40625 -2.984375 C 0.40625 -3.617188 0.503906 -4.21875 0.703125 -4.78125 C 0.898438 -5.34375 1.191406 -5.832031 1.578125 -6.25 C 1.960938 -6.675781 2.4375 -7.007812 3 -7.25 C 3.5625 -7.5 4.210938 -7.625 4.953125 -7.625 C 5.296875 -7.625 5.609375 -7.597656 5.890625 -7.546875 C 6.179688 -7.503906 6.441406 -7.441406 6.671875 -7.359375 C 6.910156 -7.285156 7.117188 -7.207031 7.296875 -7.125 C 7.484375 -7.039062 7.65625 -6.957031 7.8125 -6.875 L 7.375 -4.671875 L 5.25 -4.671875 C 5.257812 -4.753906 5.269531 -4.859375 5.28125 -4.984375 C 5.289062 -5.109375 5.300781 -5.234375 5.3125 -5.359375 C 5.320312 -5.492188 5.328125 -5.625 5.328125 -5.75 C 5.335938 -5.875 5.34375 -5.984375 5.34375 -6.078125 C 5.34375 -6.140625 5.335938 -6.210938 5.328125 -6.296875 C 5.328125 -6.378906 5.3125 -6.457031 5.28125 -6.53125 C 5.25 -6.613281 5.195312 -6.675781 5.125 -6.71875 C 5.0625 -6.769531 4.972656 -6.796875 4.859375 -6.796875 C 4.660156 -6.796875 4.472656 -6.710938 4.296875 -6.546875 C 4.128906 -6.378906 3.976562 -6.15625 3.84375 -5.875 C 3.71875 -5.59375 3.601562 -5.273438 3.5 -4.921875 C 3.394531 -4.566406 3.304688 -4.207031 3.234375 -3.84375 C 3.171875 -3.476562 3.117188 -3.117188 3.078125 -2.765625 C 3.046875 -2.410156 3.03125 -2.097656 3.03125 -1.828125 C 3.03125 -1.753906 3.035156 -1.65625 3.046875 -1.53125 C 3.054688 -1.414062 3.078125 -1.300781 3.109375 -1.1875 C 3.148438 -1.082031 3.210938 -0.988281 3.296875 -0.90625 C 3.378906 -0.832031 3.492188 -0.796875 3.640625 -0.796875 C 3.878906 -0.796875 4.113281 -0.945312 4.34375 -1.25 C 4.570312 -1.550781 4.773438 -2.09375 4.953125 -2.875 L 7.140625 -2.875 Z M 6.65625 -0.640625 "/></g></g></g><g fill="#ffffff" fill-opacity="1"><g transform="translate(97.148629, 95.271764)"><g><path d="M 0.84375 -4.640625 C 1.25 -4.835938 1.660156 -4.976562 2.078125 -5.0625 C 2.503906 -5.15625 2.976562 -5.203125 3.5 -5.203125 C 4 -5.203125 4.414062 -5.160156 4.75 -5.078125 C 5.082031 -5.003906 5.34375 -4.894531 5.53125 -4.75 C 5.726562 -4.601562 5.867188 -4.425781 5.953125 -4.21875 C 6.035156 -4.007812 6.078125 -3.773438 6.078125 -3.515625 C 6.078125 -3.367188 6.066406 -3.207031 6.046875 -3.03125 C 6.023438 -2.863281 6.003906 -2.71875 5.984375 -2.59375 L 5.421875 0 L 3.515625 0 L 3.3125 -0.75 L 3.234375 -0.75 C 2.984375 -0.476562 2.691406 -0.269531 2.359375 -0.125 C 2.023438 0.0195312 1.691406 0.09375 1.359375 0.09375 C 1.171875 0.09375 0.984375 0.0625 0.796875 0 C 0.617188 -0.0507812 0.457031 -0.128906 0.3125 -0.234375 C 0.175781 -0.347656 0.0664062 -0.492188 -0.015625 -0.671875 C -0.109375 -0.847656 -0.15625 -1.066406 -0.15625 -1.328125 C -0.15625 -1.734375 -0.046875 -2.054688 0.171875 -2.296875 C 0.398438 -2.535156 0.695312 -2.71875 1.0625 -2.84375 C 1.4375 -2.96875 1.851562 -3.046875 2.3125 -3.078125 C 2.769531 -3.109375 3.234375 -3.125 3.703125 -3.125 C 3.710938 -3.195312 3.726562 -3.304688 3.75 -3.453125 C 3.78125 -3.597656 3.796875 -3.726562 3.796875 -3.84375 C 3.796875 -3.976562 3.753906 -4.109375 3.671875 -4.234375 C 3.597656 -4.359375 3.445312 -4.421875 3.21875 -4.421875 C 2.9375 -4.421875 2.726562 -4.335938 2.59375 -4.171875 C 2.46875 -4.015625 2.382812 -3.820312 2.34375 -3.59375 L 0.625 -3.59375 Z M 3.5625 -2.5625 L 3.359375 -2.5625 C 3.128906 -2.5625 2.929688 -2.53125 2.765625 -2.46875 C 2.609375 -2.414062 2.476562 -2.34375 2.375 -2.25 C 2.28125 -2.15625 2.207031 -2.046875 2.15625 -1.921875 C 2.113281 -1.804688 2.09375 -1.691406 2.09375 -1.578125 C 2.09375 -1.378906 2.140625 -1.234375 2.234375 -1.140625 C 2.335938 -1.046875 2.457031 -1 2.59375 -1 C 2.75 -1 2.90625 -1.054688 3.0625 -1.171875 C 3.226562 -1.296875 3.332031 -1.457031 3.375 -1.65625 Z M 3.5625 -2.5625 "/></g></g></g><g fill="#ffffff" fill-opacity="1"><g transform="translate(104.018128, 95.271764)"><g><path d="M 0.953125 -5.078125 L 2.875 -5.078125 L 3.0625 -4.1875 L 3.140625 -4.1875 C 3.316406 -4.476562 3.546875 -4.71875 3.828125 -4.90625 C 4.117188 -5.101562 4.5 -5.203125 4.96875 -5.203125 C 5 -5.203125 5.046875 -5.203125 5.109375 -5.203125 C 5.171875 -5.203125 5.242188 -5.191406 5.328125 -5.171875 C 5.410156 -5.148438 5.5 -5.117188 5.59375 -5.078125 C 5.6875 -5.046875 5.773438 -5 5.859375 -4.9375 L 5.34375 -2.5 L 4.046875 -2.5 C 4.035156 -2.988281 3.992188 -3.328125 3.921875 -3.515625 C 3.847656 -3.710938 3.734375 -3.8125 3.578125 -3.8125 C 3.503906 -3.8125 3.421875 -3.789062 3.328125 -3.75 C 3.234375 -3.71875 3.140625 -3.644531 3.046875 -3.53125 L 2.296875 0 L -0.125 0 Z M 0.953125 -5.078125 "/></g></g></g><g fill="#ffffff" fill-opacity="1"><g transform="translate(110.073206, 95.271764)"><g><path d="M 4.8125 -5.078125 L 6.734375 -5.078125 L 5.765625 -0.484375 C 5.691406 -0.128906 5.570312 0.191406 5.40625 0.484375 C 5.238281 0.785156 5.007812 1.046875 4.71875 1.265625 C 4.425781 1.492188 4.054688 1.671875 3.609375 1.796875 C 3.160156 1.921875 2.617188 1.984375 1.984375 1.984375 C 1.867188 1.984375 1.726562 1.976562 1.5625 1.96875 C 1.394531 1.96875 1.222656 1.960938 1.046875 1.953125 C 0.878906 1.953125 0.710938 1.945312 0.546875 1.9375 C 0.390625 1.9375 0.265625 1.929688 0.171875 1.921875 L 0.40625 1.078125 C 0.65625 1.117188 0.910156 1.140625 1.171875 1.140625 C 1.441406 1.140625 1.671875 1.140625 1.859375 1.140625 C 2.085938 1.140625 2.28125 1.117188 2.4375 1.078125 C 2.601562 1.035156 2.738281 0.96875 2.84375 0.875 C 2.957031 0.78125 3.046875 0.65625 3.109375 0.5 C 3.179688 0.34375 3.234375 0.148438 3.265625 -0.078125 L 3.40625 -0.84375 L 3.328125 -0.84375 C 3.285156 -0.78125 3.21875 -0.695312 3.125 -0.59375 C 3.03125 -0.5 2.910156 -0.40625 2.765625 -0.3125 C 2.628906 -0.21875 2.460938 -0.140625 2.265625 -0.078125 C 2.078125 -0.0234375 1.863281 0 1.625 0 C 1.34375 0 1.101562 -0.0390625 0.90625 -0.125 C 0.71875 -0.207031 0.5625 -0.320312 0.4375 -0.46875 C 0.320312 -0.613281 0.238281 -0.785156 0.1875 -0.984375 C 0.132812 -1.179688 0.109375 -1.398438 0.109375 -1.640625 C 0.109375 -1.742188 0.113281 -1.898438 0.125 -2.109375 C 0.144531 -2.328125 0.179688 -2.566406 0.234375 -2.828125 C 0.296875 -3.097656 0.382812 -3.375 0.5 -3.65625 C 0.613281 -3.9375 0.765625 -4.191406 0.953125 -4.421875 C 1.148438 -4.648438 1.390625 -4.835938 1.671875 -4.984375 C 1.960938 -5.128906 2.316406 -5.203125 2.734375 -5.203125 C 2.859375 -5.203125 2.992188 -5.191406 3.140625 -5.171875 C 3.285156 -5.148438 3.429688 -5.109375 3.578125 -5.046875 C 3.722656 -4.984375 3.847656 -4.890625 3.953125 -4.765625 C 4.066406 -4.648438 4.15625 -4.5 4.21875 -4.3125 L 4.28125 -4.3125 Z M 3.5 -4.046875 C 3.3125 -4.046875 3.148438 -3.945312 3.015625 -3.75 C 2.890625 -3.550781 2.785156 -3.316406 2.703125 -3.046875 C 2.628906 -2.773438 2.578125 -2.507812 2.546875 -2.25 C 2.515625 -1.988281 2.5 -1.796875 2.5 -1.671875 C 2.5 -1.503906 2.519531 -1.367188 2.5625 -1.265625 C 2.613281 -1.160156 2.707031 -1.109375 2.84375 -1.109375 C 2.925781 -1.109375 3.003906 -1.128906 3.078125 -1.171875 C 3.148438 -1.210938 3.21875 -1.253906 3.28125 -1.296875 C 3.351562 -1.347656 3.414062 -1.398438 3.46875 -1.453125 C 3.519531 -1.515625 3.554688 -1.5625 3.578125 -1.59375 L 4.015625 -3.65625 C 3.953125 -3.75 3.878906 -3.835938 3.796875 -3.921875 C 3.710938 -4.003906 3.613281 -4.046875 3.5 -4.046875 Z M 3.5 -4.046875 "/></g></g></g><g fill="#ffffff" fill-opacity="1"><g transform="translate(117.249585, 95.271764)"><g><path d="M 3.71875 -5.203125 C 4.65625 -5.203125 5.335938 -5.039062 5.765625 -4.71875 C 6.210938 -4.363281 6.4375 -3.785156 6.4375 -2.984375 C 6.4375 -2.492188 6.351562 -2.046875 6.1875 -1.640625 C 6.019531 -1.242188 5.789062 -0.914062 5.5 -0.65625 C 4.894531 -0.15625 4.023438 0.09375 2.890625 0.09375 C 1.921875 0.09375 1.226562 -0.0859375 0.8125 -0.453125 C 0.363281 -0.847656 0.140625 -1.429688 0.140625 -2.203125 C 0.140625 -2.710938 0.242188 -3.175781 0.453125 -3.59375 C 0.660156 -4.007812 0.960938 -4.351562 1.359375 -4.625 C 1.929688 -5.007812 2.71875 -5.203125 3.71875 -5.203125 Z M 2.921875 -0.703125 C 3.117188 -0.703125 3.289062 -0.8125 3.4375 -1.03125 C 3.582031 -1.257812 3.695312 -1.53125 3.78125 -1.84375 C 3.863281 -2.164062 3.925781 -2.5 3.96875 -2.84375 C 4.019531 -3.1875 4.046875 -3.484375 4.046875 -3.734375 C 4.046875 -3.953125 4.019531 -4.117188 3.96875 -4.234375 C 3.925781 -4.347656 3.835938 -4.40625 3.703125 -4.40625 C 3.484375 -4.40625 3.296875 -4.289062 3.140625 -4.0625 C 2.992188 -3.832031 2.875 -3.5625 2.78125 -3.25 C 2.6875 -2.9375 2.613281 -2.613281 2.5625 -2.28125 C 2.519531 -1.945312 2.5 -1.675781 2.5 -1.46875 C 2.5 -0.957031 2.640625 -0.703125 2.921875 -0.703125 Z M 2.921875 -0.703125 "/></g></g></g><g fill="#ffffff" fill-opacity="1"><g transform="translate(30.766296, 101.778834)"><g><path d="M 1.484375 -1.359375 L 0.859375 -1.328125 L 0.765625 -0.515625 L 1.53125 -0.546875 C 1.5625 -0.546875 1.578125 -0.523438 1.578125 -0.484375 L 1.53125 -0.078125 C 1.53125 -0.0546875 1.507812 -0.0390625 1.46875 -0.03125 L 0.265625 0.015625 C 0.234375 0.015625 0.21875 0 0.21875 -0.03125 L 0.5625 -3.015625 C 0.5625 -3.046875 0.578125 -3.0625 0.609375 -3.0625 L 1.6875 -3.109375 C 1.726562 -3.097656 1.75 -3.078125 1.75 -3.046875 L 1.6875 -2.640625 C 1.6875 -2.609375 1.671875 -2.59375 1.640625 -2.59375 L 1 -2.5625 L 0.921875 -1.828125 L 1.53125 -1.859375 C 1.5625 -1.859375 1.578125 -1.835938 1.578125 -1.796875 L 1.53125 -1.40625 C 1.519531 -1.375 1.503906 -1.359375 1.484375 -1.359375 Z M 1.484375 -1.359375 "/></g></g></g><g fill="#ffffff" fill-opacity="1"><g transform="translate(34.238561, 101.778834)"><g><path d="M 2 -3.03125 L 1.3125 -1.515625 L 1.734375 -0.0625 C 1.742188 -0.0625 1.75 -0.0546875 1.75 -0.046875 C 1.75 -0.0234375 1.726562 -0.015625 1.6875 -0.015625 L 1.265625 0.015625 C 1.253906 0.00390625 1.242188 -0.0078125 1.234375 -0.03125 L 0.953125 -1.09375 L 0.53125 -0.0625 C 0.519531 -0.03125 0.503906 -0.0078125 0.484375 0 L 0.078125 0.015625 C 0.046875 0.015625 0.03125 0 0.03125 -0.03125 L 0.75 -1.671875 L 0.34375 -3.015625 C 0.34375 -3.046875 0.359375 -3.0625 0.390625 -3.0625 L 0.796875 -3.078125 C 0.828125 -3.078125 0.847656 -3.0625 0.859375 -3.03125 L 1.109375 -2.0625 L 1.5 -3.015625 C 1.519531 -3.046875 1.539062 -3.0625 1.5625 -3.0625 L 1.953125 -3.078125 C 1.984375 -3.078125 2 -3.0625 2 -3.03125 Z M 2 -3.03125 "/></g></g></g><g fill="#ffffff" fill-opacity="1"><g transform="translate(37.785973, 101.778834)"><g><path d="M 1.90625 -1.84375 C 1.800781 -1.40625 1.445312 -1.1875 0.84375 -1.1875 L 0.71875 -0.0625 C 0.71875 -0.03125 0.703125 -0.015625 0.671875 -0.015625 L 0.265625 0.015625 C 0.234375 0.00390625 0.21875 -0.0078125 0.21875 -0.03125 L 0.5625 -3.015625 C 0.5625 -3.046875 0.578125 -3.0625 0.609375 -3.0625 C 0.859375 -3.082031 1.09375 -3.09375 1.3125 -3.09375 C 1.757812 -3.09375 1.984375 -2.878906 1.984375 -2.453125 C 1.984375 -2.222656 1.957031 -2.019531 1.90625 -1.84375 Z M 1.015625 -2.640625 L 0.90625 -1.640625 C 1.125 -1.640625 1.273438 -1.6875 1.359375 -1.78125 C 1.441406 -1.875 1.484375 -2.054688 1.484375 -2.328125 C 1.484375 -2.441406 1.453125 -2.519531 1.390625 -2.5625 C 1.335938 -2.613281 1.265625 -2.640625 1.171875 -2.640625 C 1.085938 -2.640625 1.035156 -2.640625 1.015625 -2.640625 Z M 1.015625 -2.640625 "/></g></g></g><g fill="#ffffff" fill-opacity="1"><g transform="translate(41.491588, 101.778834)"><g><path d="M 1.90625 -0.046875 C 1.90625 -0.0234375 1.882812 -0.015625 1.84375 -0.015625 L 1.40625 0.015625 C 1.382812 0.00390625 1.367188 -0.0078125 1.359375 -0.03125 L 0.859375 -1.28125 L 0.71875 -0.0625 C 0.71875 -0.03125 0.703125 -0.0078125 0.671875 0 L 0.265625 0.015625 C 0.234375 0.00390625 0.21875 -0.0078125 0.21875 -0.03125 L 0.5625 -3 C 0.5625 -3.03125 0.566406 -3.046875 0.578125 -3.046875 C 0.585938 -3.054688 0.65625 -3.066406 0.78125 -3.078125 C 0.914062 -3.085938 1.09375 -3.09375 1.3125 -3.09375 C 1.53125 -3.09375 1.695312 -3.035156 1.8125 -2.921875 C 1.925781 -2.804688 1.984375 -2.65625 1.984375 -2.46875 C 1.984375 -2.289062 1.960938 -2.132812 1.921875 -2 C 1.878906 -1.863281 1.804688 -1.738281 1.703125 -1.625 C 1.609375 -1.507812 1.484375 -1.425781 1.328125 -1.375 L 1.890625 -0.078125 C 1.898438 -0.0664062 1.90625 -0.0546875 1.90625 -0.046875 Z M 1.015625 -2.640625 L 0.90625 -1.65625 C 1.144531 -1.664062 1.3125 -1.773438 1.40625 -1.984375 C 1.457031 -2.097656 1.484375 -2.210938 1.484375 -2.328125 C 1.484375 -2.441406 1.457031 -2.519531 1.40625 -2.5625 C 1.363281 -2.613281 1.296875 -2.640625 1.203125 -2.640625 C 1.109375 -2.640625 1.046875 -2.640625 1.015625 -2.640625 Z M 1.015625 -2.640625 "/></g></g></g><g fill="#ffffff" fill-opacity="1"><g transform="translate(45.215001, 101.778834)"><g><path d="M 1.484375 -1.359375 L 0.859375 -1.328125 L 0.765625 -0.515625 L 1.53125 -0.546875 C 1.5625 -0.546875 1.578125 -0.523438 1.578125 -0.484375 L 1.53125 -0.078125 C 1.53125 -0.0546875 1.507812 -0.0390625 1.46875 -0.03125 L 0.265625 0.015625 C 0.234375 0.015625 0.21875 0 0.21875 -0.03125 L 0.5625 -3.015625 C 0.5625 -3.046875 0.578125 -3.0625 0.609375 -3.0625 L 1.6875 -3.109375 C 1.726562 -3.097656 1.75 -3.078125 1.75 -3.046875 L 1.6875 -2.640625 C 1.6875 -2.609375 1.671875 -2.59375 1.640625 -2.59375 L 1 -2.5625 L 0.921875 -1.828125 L 1.53125 -1.859375 C 1.5625 -1.859375 1.578125 -1.835938 1.578125 -1.796875 L 1.53125 -1.40625 C 1.519531 -1.375 1.503906 -1.359375 1.484375 -1.359375 Z M 1.484375 -1.359375 "/></g></g></g><g fill="#ffffff" fill-opacity="1"><g transform="translate(48.687267, 101.778834)"><g><path d="M 0.171875 0.03125 C 0.140625 0.03125 0.125 0.015625 0.125 -0.015625 L 0.171875 -0.4375 C 0.179688 -0.457031 0.195312 -0.472656 0.21875 -0.484375 C 0.425781 -0.503906 0.5625 -0.535156 0.625 -0.578125 C 0.695312 -0.617188 0.734375 -0.703125 0.734375 -0.828125 C 0.734375 -0.960938 0.695312 -1.132812 0.625 -1.34375 C 0.5625 -1.5625 0.519531 -1.707031 0.5 -1.78125 C 0.4375 -2 0.40625 -2.179688 0.40625 -2.328125 C 0.40625 -2.472656 0.425781 -2.59375 0.46875 -2.6875 C 0.519531 -2.789062 0.585938 -2.875 0.671875 -2.9375 C 0.835938 -3.050781 1.0625 -3.109375 1.34375 -3.109375 C 1.375 -3.109375 1.390625 -3.09375 1.390625 -3.0625 L 1.34375 -2.65625 C 1.332031 -2.625 1.316406 -2.601562 1.296875 -2.59375 C 1.035156 -2.582031 0.90625 -2.507812 0.90625 -2.375 C 0.90625 -2.25 0.957031 -2.003906 1.0625 -1.640625 C 1.175781 -1.273438 1.234375 -1.015625 1.234375 -0.859375 C 1.234375 -0.265625 0.878906 0.03125 0.171875 0.03125 Z M 0.171875 0.03125 "/></g></g></g><g fill="#ffffff" fill-opacity="1"><g transform="translate(51.781822, 101.778834)"><g><path d="M 0.171875 0.03125 C 0.140625 0.03125 0.125 0.015625 0.125 -0.015625 L 0.171875 -0.4375 C 0.179688 -0.457031 0.195312 -0.472656 0.21875 -0.484375 C 0.425781 -0.503906 0.5625 -0.535156 0.625 -0.578125 C 0.695312 -0.617188 0.734375 -0.703125 0.734375 -0.828125 C 0.734375 -0.960938 0.695312 -1.132812 0.625 -1.34375 C 0.5625 -1.5625 0.519531 -1.707031 0.5 -1.78125 C 0.4375 -2 0.40625 -2.179688 0.40625 -2.328125 C 0.40625 -2.472656 0.425781 -2.59375 0.46875 -2.6875 C 0.519531 -2.789062 0.585938 -2.875 0.671875 -2.9375 C 0.835938 -3.050781 1.0625 -3.109375 1.34375 -3.109375 C 1.375 -3.109375 1.390625 -3.09375 1.390625 -3.0625 L 1.34375 -2.65625 C 1.332031 -2.625 1.316406 -2.601562 1.296875 -2.59375 C 1.035156 -2.582031 0.90625 -2.507812 0.90625 -2.375 C 0.90625 -2.25 0.957031 -2.003906 1.0625 -1.640625 C 1.175781 -1.273438 1.234375 -1.015625 1.234375 -0.859375 C 1.234375 -0.265625 0.878906 0.03125 0.171875 0.03125 Z M 0.171875 0.03125 "/></g></g></g><g fill="#ffffff" fill-opacity="1"><g transform="translate(54.876378, 101.778834)"><g/></g></g><g fill="#ffffff" fill-opacity="1"><g transform="translate(57.389537, 101.778834)"><g><path d="M 0.5625 -3.015625 C 0.5625 -3.035156 0.5625 -3.046875 0.5625 -3.046875 C 0.570312 -3.054688 0.640625 -3.066406 0.765625 -3.078125 C 0.898438 -3.085938 1.078125 -3.09375 1.296875 -3.09375 C 1.515625 -3.09375 1.679688 -3.03125 1.796875 -2.90625 C 1.921875 -2.78125 1.984375 -2.609375 1.984375 -2.390625 C 1.984375 -1.972656 1.9375 -1.488281 1.84375 -0.9375 C 1.789062 -0.65625 1.707031 -0.441406 1.59375 -0.296875 C 1.488281 -0.171875 1.328125 -0.0859375 1.109375 -0.046875 C 1.015625 -0.0234375 0.894531 -0.015625 0.75 -0.015625 L 0.265625 0.015625 C 0.234375 0.00390625 0.21875 -0.0078125 0.21875 -0.03125 Z M 1.015625 -2.640625 L 0.765625 -0.484375 C 0.960938 -0.503906 1.097656 -0.539062 1.171875 -0.59375 C 1.253906 -0.65625 1.3125 -0.769531 1.34375 -0.9375 C 1.375 -1.101562 1.398438 -1.328125 1.421875 -1.609375 C 1.453125 -1.898438 1.46875 -2.140625 1.46875 -2.328125 C 1.46875 -2.429688 1.441406 -2.507812 1.390625 -2.5625 C 1.335938 -2.613281 1.265625 -2.640625 1.171875 -2.640625 C 1.085938 -2.640625 1.035156 -2.640625 1.015625 -2.640625 Z M 1.015625 -2.640625 "/></g></g></g><g fill="#ffffff" fill-opacity="1"><g transform="translate(61.164365, 101.778834)"><g><path d="M 1.484375 -1.359375 L 0.859375 -1.328125 L 0.765625 -0.515625 L 1.53125 -0.546875 C 1.5625 -0.546875 1.578125 -0.523438 1.578125 -0.484375 L 1.53125 -0.078125 C 1.53125 -0.0546875 1.507812 -0.0390625 1.46875 -0.03125 L 0.265625 0.015625 C 0.234375 0.015625 0.21875 0 0.21875 -0.03125 L 0.5625 -3.015625 C 0.5625 -3.046875 0.578125 -3.0625 0.609375 -3.0625 L 1.6875 -3.109375 C 1.726562 -3.097656 1.75 -3.078125 1.75 -3.046875 L 1.6875 -2.640625 C 1.6875 -2.609375 1.671875 -2.59375 1.640625 -2.59375 L 1 -2.5625 L 0.921875 -1.828125 L 1.53125 -1.859375 C 1.5625 -1.859375 1.578125 -1.835938 1.578125 -1.796875 L 1.53125 -1.40625 C 1.519531 -1.375 1.503906 -1.359375 1.484375 -1.359375 Z M 1.484375 -1.359375 "/></g></g></g><g fill="#ffffff" fill-opacity="1"><g transform="translate(64.636631, 101.778834)"><g><path d="M 1.046875 -3.03125 L 0.765625 -0.515625 L 1.53125 -0.546875 C 1.5625 -0.546875 1.578125 -0.53125 1.578125 -0.5 L 1.53125 -0.09375 C 1.519531 -0.0507812 1.5 -0.03125 1.46875 -0.03125 L 0.265625 0.015625 C 0.234375 0.015625 0.21875 0 0.21875 -0.03125 L 0.5625 -3.015625 C 0.5625 -3.035156 0.5625 -3.046875 0.5625 -3.046875 C 0.570312 -3.054688 0.585938 -3.0625 0.609375 -3.0625 L 1 -3.078125 C 1.03125 -3.078125 1.046875 -3.0625 1.046875 -3.03125 Z M 1.046875 -3.03125 "/></g></g></g><g fill="#ffffff" fill-opacity="1"><g transform="translate(68.069346, 101.778834)"><g><path d="M 1.0625 -3.03125 L 0.71875 -0.0625 C 0.71875 -0.03125 0.703125 -0.0078125 0.671875 0 L 0.265625 0.015625 C 0.234375 0.015625 0.21875 0 0.21875 -0.03125 L 0.5625 -3.015625 C 0.5625 -3.046875 0.578125 -3.0625 0.609375 -3.0625 L 1 -3.078125 C 1.039062 -3.078125 1.0625 -3.0625 1.0625 -3.03125 Z M 1.0625 -3.03125 "/></g></g></g><g fill="#ffffff" fill-opacity="1"><g transform="translate(70.853427, 101.778834)"><g><path d="M 0.5625 -0.046875 L 0.328125 -3.015625 C 0.328125 -3.046875 0.347656 -3.0625 0.390625 -3.0625 L 0.796875 -3.078125 C 0.828125 -3.078125 0.84375 -3.066406 0.84375 -3.046875 L 0.9375 -0.8125 L 1.453125 -3.015625 C 1.453125 -3.035156 1.457031 -3.046875 1.46875 -3.046875 C 1.476562 -3.054688 1.488281 -3.0625 1.5 -3.0625 L 1.90625 -3.078125 C 1.9375 -3.078125 1.953125 -3.066406 1.953125 -3.046875 L 1.09375 -0.0625 C 1.082031 -0.03125 1.066406 -0.015625 1.046875 -0.015625 L 0.609375 0.015625 C 0.578125 0.00390625 0.5625 -0.015625 0.5625 -0.046875 Z M 0.5625 -0.046875 "/></g></g></g><g fill="#ffffff" fill-opacity="1"><g transform="translate(74.351401, 101.778834)"><g><path d="M 1.484375 -1.359375 L 0.859375 -1.328125 L 0.765625 -0.515625 L 1.53125 -0.546875 C 1.5625 -0.546875 1.578125 -0.523438 1.578125 -0.484375 L 1.53125 -0.078125 C 1.53125 -0.0546875 1.507812 -0.0390625 1.46875 -0.03125 L 0.265625 0.015625 C 0.234375 0.015625 0.21875 0 0.21875 -0.03125 L 0.5625 -3.015625 C 0.5625 -3.046875 0.578125 -3.0625 0.609375 -3.0625 L 1.6875 -3.109375 C 1.726562 -3.097656 1.75 -3.078125 1.75 -3.046875 L 1.6875 -2.640625 C 1.6875 -2.609375 1.671875 -2.59375 1.640625 -2.59375 L 1 -2.5625 L 0.921875 -1.828125 L 1.53125 -1.859375 C 1.5625 -1.859375 1.578125 -1.835938 1.578125 -1.796875 L 1.53125 -1.40625 C 1.519531 -1.375 1.503906 -1.359375 1.484375 -1.359375 Z M 1.484375 -1.359375 "/></g></g></g><g fill="#ffffff" fill-opacity="1"><g transform="translate(77.823666, 101.778834)"><g><path d="M 1.90625 -0.046875 C 1.90625 -0.0234375 1.882812 -0.015625 1.84375 -0.015625 L 1.40625 0.015625 C 1.382812 0.00390625 1.367188 -0.0078125 1.359375 -0.03125 L 0.859375 -1.28125 L 0.71875 -0.0625 C 0.71875 -0.03125 0.703125 -0.0078125 0.671875 0 L 0.265625 0.015625 C 0.234375 0.00390625 0.21875 -0.0078125 0.21875 -0.03125 L 0.5625 -3 C 0.5625 -3.03125 0.566406 -3.046875 0.578125 -3.046875 C 0.585938 -3.054688 0.65625 -3.066406 0.78125 -3.078125 C 0.914062 -3.085938 1.09375 -3.09375 1.3125 -3.09375 C 1.53125 -3.09375 1.695312 -3.035156 1.8125 -2.921875 C 1.925781 -2.804688 1.984375 -2.65625 1.984375 -2.46875 C 1.984375 -2.289062 1.960938 -2.132812 1.921875 -2 C 1.878906 -1.863281 1.804688 -1.738281 1.703125 -1.625 C 1.609375 -1.507812 1.484375 -1.425781 1.328125 -1.375 L 1.890625 -0.078125 C 1.898438 -0.0664062 1.90625 -0.0546875 1.90625 -0.046875 Z M 1.015625 -2.640625 L 0.90625 -1.65625 C 1.144531 -1.664062 1.3125 -1.773438 1.40625 -1.984375 C 1.457031 -2.097656 1.484375 -2.210938 1.484375 -2.328125 C 1.484375 -2.441406 1.457031 -2.519531 1.40625 -2.5625 C 1.363281 -2.613281 1.296875 -2.640625 1.203125 -2.640625 C 1.109375 -2.640625 1.046875 -2.640625 1.015625 -2.640625 Z M 1.015625 -2.640625 "/></g></g></g><g fill="#ffffff" fill-opacity="1"><g transform="translate(81.547079, 101.778834)"><g><path d="M 0.8125 -3.046875 L 1.03125 -1.90625 L 1.4375 -3.015625 C 1.445312 -3.046875 1.460938 -3.0625 1.484375 -3.0625 L 1.890625 -3.078125 C 1.910156 -3.078125 1.925781 -3.070312 1.9375 -3.0625 C 1.945312 -3.050781 1.953125 -3.039062 1.953125 -3.03125 L 1.203125 -1.390625 L 1.0625 -0.0625 C 1.050781 -0.03125 1.03125 -0.0078125 1 0 L 0.59375 0.015625 C 0.570312 0.015625 0.5625 0 0.5625 -0.03125 L 0.703125 -1.34375 L 0.296875 -3.03125 C 0.296875 -3.050781 0.316406 -3.0625 0.359375 -3.0625 L 0.75 -3.078125 C 0.78125 -3.078125 0.800781 -3.066406 0.8125 -3.046875 Z M 0.8125 -3.046875 "/></g></g></g><g fill="#ffffff" fill-opacity="1"><g transform="translate(85.003524, 101.778834)"><g><path d="M 0.265625 0.703125 C 0.265625 0.679688 0.28125 0.59375 0.3125 0.4375 C 0.34375 0.289062 0.363281 0.148438 0.375 0.015625 C 0.320312 -0.00390625 0.28125 -0.0390625 0.25 -0.09375 C 0.21875 -0.144531 0.203125 -0.207031 0.203125 -0.28125 C 0.203125 -0.351562 0.234375 -0.421875 0.296875 -0.484375 C 0.367188 -0.554688 0.445312 -0.59375 0.53125 -0.59375 C 0.625 -0.59375 0.691406 -0.5625 0.734375 -0.5 C 0.785156 -0.445312 0.8125 -0.375 0.8125 -0.28125 C 0.8125 -0.125 0.78125 0.046875 0.71875 0.234375 C 0.601562 0.523438 0.519531 0.6875 0.46875 0.71875 C 0.445312 0.726562 0.390625 0.734375 0.296875 0.734375 C 0.273438 0.734375 0.265625 0.722656 0.265625 0.703125 Z M 0.265625 0.703125 "/></g></g></g><g fill="#ffffff" fill-opacity="1"><g transform="translate(87.842977, 101.778834)"><g/></g></g><g fill="#ffffff" fill-opacity="1"><g transform="translate(90.356136, 101.778834)"><g><path d="M 2.109375 -3.046875 L 1.765625 -0.0625 C 1.753906 -0.03125 1.738281 -0.015625 1.71875 -0.015625 L 1.3125 0.015625 C 1.289062 0.015625 1.28125 0 1.28125 -0.03125 L 0.859375 -2.140625 L 0.71875 -0.0625 C 0.71875 -0.03125 0.703125 -0.0078125 0.671875 0 L 0.265625 0.015625 C 0.234375 0.015625 0.21875 0 0.21875 -0.03125 L 0.5625 -3.015625 C 0.5625 -3.046875 0.578125 -3.0625 0.609375 -3.0625 L 1.015625 -3.09375 C 1.035156 -3.09375 1.046875 -3.085938 1.046875 -3.078125 C 1.054688 -3.066406 1.0625 -3.054688 1.0625 -3.046875 L 1.46875 -1.046875 L 1.609375 -3.015625 C 1.609375 -3.046875 1.625 -3.0625 1.65625 -3.0625 L 2.046875 -3.09375 C 2.085938 -3.09375 2.109375 -3.078125 2.109375 -3.046875 Z M 2.109375 -3.046875 "/></g></g></g><g fill="#ffffff" fill-opacity="1"><g transform="translate(94.184359, 101.778834)"><g><path d="M 0.9375 0.03125 C 0.71875 0.03125 0.550781 -0.03125 0.4375 -0.15625 C 0.320312 -0.289062 0.265625 -0.457031 0.265625 -0.65625 C 0.265625 -1.164062 0.316406 -1.664062 0.421875 -2.15625 C 0.503906 -2.539062 0.617188 -2.796875 0.765625 -2.921875 C 0.890625 -3.046875 1.0625 -3.109375 1.28125 -3.109375 C 1.507812 -3.109375 1.679688 -3.039062 1.796875 -2.90625 C 1.910156 -2.78125 1.96875 -2.617188 1.96875 -2.421875 C 1.96875 -2.222656 1.953125 -1.984375 1.921875 -1.703125 C 1.898438 -1.429688 1.867188 -1.203125 1.828125 -1.015625 C 1.796875 -0.835938 1.765625 -0.703125 1.734375 -0.609375 C 1.710938 -0.523438 1.675781 -0.441406 1.625 -0.359375 C 1.582031 -0.273438 1.535156 -0.207031 1.484375 -0.15625 C 1.347656 -0.03125 1.164062 0.03125 0.9375 0.03125 Z M 1 -0.4375 C 1.164062 -0.4375 1.269531 -0.59375 1.3125 -0.90625 C 1.34375 -1.101562 1.375 -1.351562 1.40625 -1.65625 C 1.4375 -1.96875 1.453125 -2.179688 1.453125 -2.296875 C 1.453125 -2.421875 1.429688 -2.507812 1.390625 -2.5625 C 1.359375 -2.613281 1.304688 -2.640625 1.234375 -2.640625 C 1.078125 -2.640625 0.972656 -2.484375 0.921875 -2.171875 C 0.890625 -1.992188 0.859375 -1.75 0.828125 -1.4375 C 0.796875 -1.125 0.78125 -0.90625 0.78125 -0.78125 C 0.78125 -0.65625 0.800781 -0.566406 0.84375 -0.515625 C 0.882812 -0.460938 0.9375 -0.4375 1 -0.4375 Z M 1 -0.4375 "/></g></g></g><g fill="#ffffff" fill-opacity="1"><g transform="translate(97.937435, 101.778834)"><g/></g></g><g fill="#ffffff" fill-opacity="1"><g transform="translate(100.450594, 101.778834)"><g><path d="M 2.0625 -3.03125 L 1.71875 -0.0625 C 1.707031 -0.03125 1.691406 -0.0078125 1.671875 0 L 1.265625 0.015625 C 1.234375 0.015625 1.21875 0 1.21875 -0.03125 L 1.359375 -1.328125 L 0.859375 -1.3125 L 0.71875 -0.0625 C 0.71875 -0.03125 0.703125 -0.0078125 0.671875 0 L 0.265625 0.015625 C 0.234375 0.015625 0.21875 0 0.21875 -0.03125 L 0.5625 -3.015625 C 0.5625 -3.046875 0.578125 -3.0625 0.609375 -3.0625 L 1 -3.078125 C 1.039062 -3.078125 1.0625 -3.0625 1.0625 -3.03125 L 0.90625 -1.78125 L 1.421875 -1.796875 L 1.5625 -3.015625 C 1.5625 -3.046875 1.578125 -3.0625 1.609375 -3.0625 L 2 -3.078125 C 2.039062 -3.078125 2.0625 -3.0625 2.0625 -3.03125 Z M 2.0625 -3.03125 "/></g></g></g><g fill="#ffffff" fill-opacity="1"><g transform="translate(104.233333, 101.778834)"><g><path d="M 1.453125 -3.03125 L 1.6875 -0.0625 C 1.6875 -0.03125 1.671875 -0.015625 1.640625 -0.015625 L 1.21875 0.015625 C 1.195312 0.015625 1.1875 0 1.1875 -0.03125 L 1.15625 -0.6875 L 0.703125 -0.65625 L 0.5625 -0.0625 C 0.550781 -0.0390625 0.539062 -0.0234375 0.53125 -0.015625 C 0.53125 -0.015625 0.519531 -0.0078125 0.5 0 L 0.09375 0.015625 C 0.0703125 0.015625 0.0625 0 0.0625 -0.03125 L 0.921875 -3.015625 C 0.929688 -3.046875 0.953125 -3.0625 0.984375 -3.0625 L 1.40625 -3.078125 C 1.4375 -3.078125 1.453125 -3.0625 1.453125 -3.03125 Z M 1.078125 -2.21875 L 0.8125 -1.078125 L 1.140625 -1.09375 Z M 1.078125 -2.21875 "/></g></g></g><g fill="#ffffff" fill-opacity="1"><g transform="translate(107.822273, 101.778834)"><g><path d="M 0.171875 0.03125 C 0.140625 0.03125 0.125 0.015625 0.125 -0.015625 L 0.171875 -0.4375 C 0.179688 -0.457031 0.195312 -0.472656 0.21875 -0.484375 C 0.425781 -0.503906 0.5625 -0.535156 0.625 -0.578125 C 0.695312 -0.617188 0.734375 -0.703125 0.734375 -0.828125 C 0.734375 -0.960938 0.695312 -1.132812 0.625 -1.34375 C 0.5625 -1.5625 0.519531 -1.707031 0.5 -1.78125 C 0.4375 -2 0.40625 -2.179688 0.40625 -2.328125 C 0.40625 -2.472656 0.425781 -2.59375 0.46875 -2.6875 C 0.519531 -2.789062 0.585938 -2.875 0.671875 -2.9375 C 0.835938 -3.050781 1.0625 -3.109375 1.34375 -3.109375 C 1.375 -3.109375 1.390625 -3.09375 1.390625 -3.0625 L 1.34375 -2.65625 C 1.332031 -2.625 1.316406 -2.601562 1.296875 -2.59375 C 1.035156 -2.582031 0.90625 -2.507812 0.90625 -2.375 C 0.90625 -2.25 0.957031 -2.003906 1.0625 -1.640625 C 1.175781 -1.273438 1.234375 -1.015625 1.234375 -0.859375 C 1.234375 -0.265625 0.878906 0.03125 0.171875 0.03125 Z M 0.171875 0.03125 "/></g></g></g><g fill="#ffffff" fill-opacity="1"><g transform="translate(110.916828, 101.778834)"><g><path d="M 0.171875 0.03125 C 0.140625 0.03125 0.125 0.015625 0.125 -0.015625 L 0.171875 -0.4375 C 0.179688 -0.457031 0.195312 -0.472656 0.21875 -0.484375 C 0.425781 -0.503906 0.5625 -0.535156 0.625 -0.578125 C 0.695312 -0.617188 0.734375 -0.703125 0.734375 -0.828125 C 0.734375 -0.960938 0.695312 -1.132812 0.625 -1.34375 C 0.5625 -1.5625 0.519531 -1.707031 0.5 -1.78125 C 0.4375 -2 0.40625 -2.179688 0.40625 -2.328125 C 0.40625 -2.472656 0.425781 -2.59375 0.46875 -2.6875 C 0.519531 -2.789062 0.585938 -2.875 0.671875 -2.9375 C 0.835938 -3.050781 1.0625 -3.109375 1.34375 -3.109375 C 1.375 -3.109375 1.390625 -3.09375 1.390625 -3.0625 L 1.34375 -2.65625 C 1.332031 -2.625 1.316406 -2.601562 1.296875 -2.59375 C 1.035156 -2.582031 0.90625 -2.507812 0.90625 -2.375 C 0.90625 -2.25 0.957031 -2.003906 1.0625 -1.640625 C 1.175781 -1.273438 1.234375 -1.015625 1.234375 -0.859375 C 1.234375 -0.265625 0.878906 0.03125 0.171875 0.03125 Z M 0.171875 0.03125 "/></g></g></g><g fill="#ffffff" fill-opacity="1"><g transform="translate(114.011384, 101.778834)"><g><path d="M 1.046875 -3.03125 L 0.765625 -0.515625 L 1.53125 -0.546875 C 1.5625 -0.546875 1.578125 -0.53125 1.578125 -0.5 L 1.53125 -0.09375 C 1.519531 -0.0507812 1.5 -0.03125 1.46875 -0.03125 L 0.265625 0.015625 C 0.234375 0.015625 0.21875 0 0.21875 -0.03125 L 0.5625 -3.015625 C 0.5625 -3.035156 0.5625 -3.046875 0.5625 -3.046875 C 0.570312 -3.054688 0.585938 -3.0625 0.609375 -3.0625 L 1 -3.078125 C 1.03125 -3.078125 1.046875 -3.0625 1.046875 -3.03125 Z M 1.046875 -3.03125 "/></g></g></g><g fill="#ffffff" fill-opacity="1"><g transform="translate(117.444099, 101.778834)"><g><path d="M 1.484375 -1.359375 L 0.859375 -1.328125 L 0.765625 -0.515625 L 1.53125 -0.546875 C 1.5625 -0.546875 1.578125 -0.523438 1.578125 -0.484375 L 1.53125 -0.078125 C 1.53125 -0.0546875 1.507812 -0.0390625 1.46875 -0.03125 L 0.265625 0.015625 C 0.234375 0.015625 0.21875 0 0.21875 -0.03125 L 0.5625 -3.015625 C 0.5625 -3.046875 0.578125 -3.0625 0.609375 -3.0625 L 1.6875 -3.109375 C 1.726562 -3.097656 1.75 -3.078125 1.75 -3.046875 L 1.6875 -2.640625 C 1.6875 -2.609375 1.671875 -2.59375 1.640625 -2.59375 L 1 -2.5625 L 0.921875 -1.828125 L 1.53125 -1.859375 C 1.5625 -1.859375 1.578125 -1.835938 1.578125 -1.796875 L 1.53125 -1.40625 C 1.519531 -1.375 1.503906 -1.359375 1.484375 -1.359375 Z M 1.484375 -1.359375 "/></g></g></g></svg>